<svg width="18" height="16" viewBox="0 0 18 16" fill="none" xmlns="http://www.w3.org/2000/svg">
<path d="M17.7997 0.79906C17.0336 1.33944 16.1854 1.75275 15.2877 2.02306C14.8059 1.46907 14.1656 1.07641 13.4533 0.898201C12.7411 0.719988 11.9913 0.764817 11.3054 1.02662C10.6194 1.28843 10.0305 1.75458 9.61809 2.36203C9.20572 2.96949 8.98986 3.68893 8.99971 4.42306V5.22306C7.59381 5.25951 6.20073 4.94771 4.94451 4.31542C3.6883 3.68312 2.60796 2.74997 1.79971 1.59906C1.79971 1.59906 -1.40029 8.79906 5.79971 11.9991C4.15213 13.1174 2.18943 13.6782 0.199707 13.5991C7.39971 17.5991 16.1997 13.5991 16.1997 4.39906C16.199 4.17622 16.1775 3.95394 16.1357 3.73506C16.9522 2.92985 17.5284 1.91323 17.7997 0.79906Z" fill="white"/>
</svg>
