<svg width="20" height="20" viewBox="0 0 20 20" fill="none" xmlns="http://www.w3.org/2000/svg">
<g clip-path="url(#clip0_20_271)">
<path d="M14.2007 2H6.20068C3.99154 2 2.20068 3.79086 2.20068 6V14C2.20068 16.2091 3.99154 18 6.20068 18H14.2007C16.4098 18 18.2007 16.2091 18.2007 14V6C18.2007 3.79086 16.4098 2 14.2007 2Z" stroke="white" stroke-width="1.92" stroke-linecap="round" stroke-linejoin="round"/>
<path d="M13.401 9.49575C13.4998 10.1615 13.386 10.8415 13.076 11.439C12.766 12.0364 12.2756 12.5209 11.6743 12.8235C11.0731 13.1261 10.3918 13.2314 9.72726 13.1245C9.06274 13.0176 8.44884 12.7038 7.97291 12.2279C7.49697 11.7519 7.18322 11.1381 7.07629 10.4735C6.96936 9.80899 7.07469 9.12767 7.3773 8.52645C7.67991 7.92524 8.16438 7.43475 8.76182 7.12475C9.35926 6.81475 10.0392 6.70102 10.705 6.79975C11.3842 6.90046 12.0129 7.21692 12.4984 7.7024C12.9839 8.18787 13.3003 8.81661 13.401 9.49575Z" stroke="white" stroke-width="1.92" stroke-linecap="round" stroke-linejoin="round"/>
<path d="M14.6001 5.59961H14.6084" stroke="white" stroke-width="1.92" stroke-linecap="round" stroke-linejoin="round"/>
</g>
<defs>
<clipPath id="clip0_20_271">
<rect width="19.2" height="19.2" fill="white" transform="translate(0.600098 0.399902)"/>
</clipPath>
</defs>
</svg>
