<svg width="20" height="16" viewBox="0 0 20 16" fill="none" xmlns="http://www.w3.org/2000/svg">
<path d="M17.8682 2.18581L19.4002 0.720214V0.399414H14.093L10.3106 9.81381L6.0074 0.399414H0.442595V0.720214L2.2322 2.87461C2.4066 3.03381 2.4978 3.26661 2.4746 3.50101V11.9674C2.5298 12.2722 2.4306 12.5858 2.2162 12.8074L0.200195 15.2506V15.5674H5.9162V15.2466L3.9002 12.8074C3.6818 12.585 3.5786 12.277 3.6226 11.9674V4.64421L8.6402 15.5714H9.2234L13.5378 4.64421V13.349C13.5378 13.5786 13.5378 13.6258 13.3874 13.7762L11.8354 15.2778V15.5994H19.365V15.2786L17.869 13.8138C17.7378 13.7146 17.6698 13.5482 17.6978 13.3866V2.61301C17.6698 2.45061 17.737 2.28421 17.8682 2.18581Z" fill="white"/>
</svg>
